HIERARCHY
ROOT Hips
{
	OFFSET 0.000000 0.000000 0.000000
	CHANNELS 6 Xposition Yposition Zposition Xrotation Yrotation Zrotation
	JOINT LeftUpLeg_virtual
	{
		OFFSET 0.000000 0.000000 0.000000
		CHANNELS 3 Xrotation Yrotation Zrotation
		JOINT LeftUpLeg
		{
			OFFSET 11.394100 -6.187798 -0.413800
			CHANNELS 3 Xrotation Yrotation Zrotation
			JOINT LeftLeg
			{
				OFFSET 0.430247 -32.302673 3.732800
				CHANNELS 3 Xrotation Yrotation Zrotation
				JOINT LeftFoot
				{
					OFFSET -0.430247 -48.264931 -6.423300
					CHANNELS 3 Xrotation Yrotation Zrotation
					JOINT LeftToeBase
					{
						OFFSET 4.230900 -16.068199 23.438400
						CHANNELS 3 Xrotation Yrotation Zrotation
						JOINT LeftToe_End
						{
							OFFSET 4.510700 0.695400 19.974600
							CHANNELS 3 Xrotation Yrotation Zrotation
							End Site
							{
								OFFSET 0 0 0
							}
						}
					}
				}
			}
		}
	}
	JOINT RightUpLeg_virtual
	{
		OFFSET 0.000000 0.000000 0.000000
		CHANNELS 3 Xrotation Yrotation Zrotation
		JOINT RightUpLeg
		{
			OFFSET -11.333700 -6.187798 -0.413800
			CHANNELS 3 Xrotation Yrotation Zrotation
			JOINT RightLeg
			{
				OFFSET -0.430392 -32.302628 3.733000
				CHANNELS 3 Xrotation Yrotation Zrotation
				JOINT RightFoot
				{
					OFFSET 0.430392 -48.264973 -6.423500
					CHANNELS 3 Xrotation Yrotation Zrotation
					JOINT RightToeBase
					{
						OFFSET -4.230900 -16.068199 23.438400
						CHANNELS 3 Xrotation Yrotation Zrotation
						JOINT RightToe_End
						{
							OFFSET -4.510700 0.695400 19.974600
							CHANNELS 3 Xrotation Yrotation Zrotation
							End Site
							{
								OFFSET 0 0 0
							}
						}
					}
				}
			}
		}
	}
	JOINT Spine_virtual
	{
		OFFSET 0.000000 0.000000 0.000000
		CHANNELS 3 Xrotation Yrotation Zrotation
		JOINT Spine
		{
			OFFSET -0.002400 12.777504 0.315300
			CHANNELS 3 Xrotation Yrotation Zrotation
			JOINT Spine1
			{
				OFFSET -0.002067 5.816869 0.032633
				CHANNELS 3 Xrotation Yrotation Zrotation
				JOINT Spine1_split
				{
					OFFSET -0.002067 5.816869 0.032633
					CHANNELS 3 Xrotation Yrotation Zrotation
					JOINT Spine2
					{
						OFFSET -0.002067 5.816869 0.032633
						CHANNELS 3 Xrotation Yrotation Zrotation
						JOINT Neck_virtual
						{
							OFFSET 0.000000 0.000000 0.000000
							CHANNELS 3 Xrotation Yrotation Zrotation
							JOINT Neck
							{
								OFFSET -0.003700 21.199493 -0.826900
								CHANNELS 3 Xrotation Yrotation Zrotation
								JOINT Head
								{
									OFFSET 0.000000 20.442200 4.834800
									CHANNELS 3 Xrotation Yrotation Zrotation
									JOINT HeadTop_End
									{
										OFFSET 0.000000 34.668396 4.968400
										CHANNELS 3 Xrotation Yrotation Zrotation
										End Site
										{
											OFFSET 0 0 0
										}
									}
								}
							}
						}
						JOINT LeftShoulder_virtual
						{
							OFFSET 0.000000 0.000000 0.000000
							CHANNELS 3 Xrotation Yrotation Zrotation
							JOINT LeftShoulder
							{
								OFFSET 3.288150 8.794197 -1.372250
								CHANNELS 3 Xrotation Yrotation Zrotation
								JOINT LeftShoulder_split
								{
									OFFSET 3.288150 8.794197 -1.372250
									CHANNELS 3 Xrotation Yrotation Zrotation
									JOINT LeftArm
									{
										OFFSET 11.953299 -2.279007 -0.146200
										CHANNELS 3 Xrotation Yrotation Zrotation
										JOINT LeftForeArm
										{
											OFFSET 18.448900 0.000000 0.000000
											CHANNELS 3 Xrotation Yrotation Zrotation
											JOINT LeftHand
											{
												OFFSET 29.527798 0.000000 0.000000
												CHANNELS 3 Xrotation Yrotation Zrotation
												End Site
												{
													OFFSET 0 0 0
												}
											}
										}
									}
								}
							}
						}
						JOINT RightShoulder_virtual
						{
							OFFSET 0.000000 0.000000 0.000000
							CHANNELS 3 Xrotation Yrotation Zrotation
							JOINT RightShoulder
							{
								OFFSET -3.249400 8.794197 -1.372250
								CHANNELS 3 Xrotation Yrotation Zrotation
								JOINT RightShoulder_split
								{
									OFFSET -3.249400 8.794197 -1.372250
									CHANNELS 3 Xrotation Yrotation Zrotation
									JOINT RightArm
									{
										OFFSET -11.953299 -2.279007 -0.146200
										CHANNELS 3 Xrotation Yrotation Zrotation
										JOINT RightForeArm
										{
											OFFSET -18.448900 0.000000 0.000000
											CHANNELS 3 Xrotation Yrotation Zrotation
											JOINT RightHand
											{
												OFFSET -29.527802 0.000000 0.000000
												CHANNELS 3 Xrotation Yrotation Zrotation
												End Site
												{
													OFFSET 0 0 0
												}
											}
										}
									}
								}
							}
						}
					}
				}
			}
		}
	}
}
MOTION
Frames: 4
Frame Time: 0.03333333
-12.304605 67.707924 -3.554375 0.000000 0.000000 0.000000 -2.899505 -7.869945 -1.877943 -74.236978 -11.406694 6.018502 78.483539 -16.927811 -4.204365 5.466235 -4.402632 1.588128 -0.357169 1.605277 0.706024 0.000000 0.000000 0.000000 -3.666574 -1.067707 -1.548967 -19.143471 4.690360 -1.122995 92.383868 -7.661715 -4.683186 -29.676656 -3.450487 22.651236 -50.976092 -1.147803 -3.557691 0.000000 0.000000 0.000000 -7.007431 0.516676 -2.508492 11.443580 2.234209 -2.107381 6.118029 0.712704 -3.282858 0.301248 -0.794785 -0.021133 0.000000 0.000000 0.000000 5.730113 0.827610 -2.880223 1.721608 -3.426052 9.772698 12.413836 1.716426 -6.073166 0.000000 0.000000 0.000000 5.418921 0.575516 -2.360218 -7.651525 -39.821943 -7.075815 -2.141658 -4.111274 -2.937065 -37.951178 -14.765942 -33.626739 -93.444822 -55.607876 -88.706010 0.000000 0.000000 0.000000 5.501763 0.499922 -2.620089 -8.557187 30.702984 11.641471 -1.793573 -2.442242 5.245122 -48.323711 6.386004 39.163728 -129.957272 54.675265 127.813972 0.000000 0.000000 0.000000 
-12.499587 72.668503 -2.874130 0.000000 0.000000 0.000000 -0.992138 -6.313251 -0.838352 -67.989260 -10.742394 4.383250 68.832980 -17.147554 -3.262976 6.875372 -5.045091 1.058827 -3.021737 1.412715 1.237508 0.000000 0.000000 0.000000 -1.551436 1.031630 -0.757908 -15.863678 2.093548 -1.076077 84.797427 -8.475553 -4.845897 -29.779263 -3.388577 20.657521 -46.656616 0.484165 -4.488958 0.000000 0.000000 0.000000 -4.804992 1.750696 -1.715954 10.409405 1.862993 -2.243524 4.036512 0.321241 -3.814388 1.116794 -0.604558 0.084879 0.000000 0.000000 0.000000 3.649285 0.378171 -3.044773 -5.168690 -3.765406 8.593589 12.040804 0.835295 -6.390625 0.000000 0.000000 0.000000 3.237865 0.297060 -2.675440 -6.793172 -35.120980 -6.301547 -1.702428 -5.570987 -1.592755 -27.957569 -13.555434 -24.314645 -111.686270 -62.223809 -110.125824 0.000000 0.000000 0.000000 3.383561 0.054341 -3.055901 -7.566087 25.766880 8.734482 -1.777348 -1.210756 3.983388 -39.115073 11.023832 35.418407 -148.145164 57.621259 147.835784 0.000000 0.000000 0.000000 
-12.702740 78.726173 -1.725124 0.000000 0.000000 0.000000 1.174523 -5.022663 -0.088789 -60.951153 -9.912765 3.621750 56.454249 -17.088515 -3.021316 10.033305 -5.213151 0.823758 -4.415525 1.083130 1.636338 0.000000 0.000000 0.000000 0.830771 2.129776 -0.161141 -11.846202 -0.209204 -0.817486 73.196849 -9.375135 -5.329749 -26.826932 -2.262288 17.829125 -44.094718 2.147398 -4.736166 0.000000 0.000000 0.000000 -2.148956 2.577590 -1.088263 8.761995 1.827779 -2.151443 1.798942 0.276629 -4.268905 1.292590 -0.793535 0.414381 0.000000 0.000000 0.000000 1.599806 0.115522 -3.143430 -14.575523 -4.334658 7.024925 11.484927 0.013060 -7.077215 0.000000 0.000000 0.000000 1.021609 0.308394 -2.991856 -5.928598 -28.732519 -5.507019 -1.658736 -5.545761 0.120051 -20.652189 -9.506717 -16.242974 -120.321077 -71.442420 -122.203163 0.000000 0.000000 0.000000 1.364310 -0.112117 -3.475077 -6.946790 20.253878 5.746557 -1.961421 0.504511 2.559278 -27.445341 12.371680 28.272267 -163.676577 63.071442 165.600286 0.000000 0.000000 0.000000 
-12.857054 85.172531 -0.238518 0.000000 0.000000 0.000000 3.460081 -4.383554 0.013211 -53.607874 -8.784206 4.021393 42.969950 -16.440064 -3.314940 13.391598 -4.706412 0.882033 -3.886565 0.776049 1.623651 0.000000 0.000000 0.000000 3.223266 2.134293 -0.032827 -7.834418 -1.894112 -0.198720 58.732373 -9.785391 -6.161557 -20.473110 -0.051120 14.473222 -43.814410 3.822286 -4.319341 0.000000 0.000000 0.000000 0.542123 2.849564 -0.962886 6.915537 2.172449 -1.806175 -0.236021 0.648974 -4.433708 1.403756 -1.024246 0.740381 0.000000 0.000000 0.000000 -0.280223 0.168687 -3.025462 -26.008539 -4.960201 5.179827 10.986831 -0.681070 -7.945837 0.000000 0.000000 0.000000 -0.850465 0.611344 -3.179197 -5.068560 -21.240468 -4.497789 -2.524186 -4.010159 1.229020 -16.760833 -3.825005 -10.026577 -60.979970 -85.058900 -66.780228 0.000000 0.000000 0.000000 -0.287771 0.107690 -3.664456 -6.776194 14.468321 3.008624 -2.269509 1.896617 1.436274 -14.882234 8.948019 19.739295 174.525936 73.999649 -169.878416 0.000000 0.000000 0.000000 
